<svg width="234" height="92" viewBox="0 0 234 92" fill="none" xmlns="http://www.w3.org/2000/svg">
<path d="M185.801 42.997L185.798 43L169.065 25.5952H147.17L139.145 17.2767H172.377L185.801 31.2388L215.834 -9.87535e-07L227.145 1.96581e-05L185.804 43L185.801 42.997Z" fill="white"/>
<path d="M185.428 49.003L185.431 49L202.544 66.4048L224.936 66.4047L233.145 74.7233L199.156 74.7233L185.428 60.7612L154.712 92L143.145 92L185.425 49L185.428 49.003Z" fill="url(#paint0_radial_742_237)"/>
<path d="M180.581 45.5216L180.583 45.5245L150.503 75.6087L139.027 75.6088L169.111 45.5227L155.476 31.8939L166.951 31.8939L180.583 45.5186L180.581 45.5216Z" fill="white"/>
<path d="M190.148 45.2808L190.145 45.2778L220.548 15L232.145 15.001L201.739 45.2808L215.517 59L203.921 58.9989L190.145 45.2838L190.148 45.2808Z" fill="url(#paint1_radial_742_237)"/>
<path d="M17.17 71L0 35.3636H8.8417L14.9453 48.1475C15.5158 49.3165 16.0672 50.5232 16.5996 51.7677C17.132 52.9744 17.6644 54.4263 18.1968 56.1232C18.7672 54.464 19.3377 53.0498 19.9081 51.8808C20.4785 50.7118 21.0299 49.5428 21.5624 48.3737L28.2364 34.0061L34.9675 48.3737C35.4999 49.5051 36.0323 50.6552 36.5647 51.8242C37.1352 52.9933 37.6866 54.4263 38.219 56.1232C38.7514 54.3508 39.2838 52.8801 39.8162 51.7111C40.3866 50.5044 40.938 49.3165 41.4704 48.1475L47.6311 35.3636H56.0165L38.8465 71L31.4308 56.9152C30.8224 55.7461 30.2329 54.5771 29.6625 53.4081C29.1301 52.2013 28.5787 50.8438 28.0082 49.3354C27.4758 50.8438 26.9244 52.2013 26.354 53.4081C25.7836 54.5771 25.1751 55.7461 24.5286 56.9152L17.17 71Z" fill="white"/>
<path d="M76.4558 70.2081C72.767 70.2081 69.4775 69.4162 66.5873 67.8323C63.6971 66.2485 61.4344 64.0801 59.7992 61.3273C58.2019 58.5744 57.4033 55.4633 57.4033 51.9939C57.4033 48.6754 58.1829 45.6963 59.7421 43.0566C61.3393 40.4168 63.4689 38.3239 66.131 36.7778C68.831 35.2316 71.7973 34.4586 75.0297 34.4586C78.3002 34.4586 81.2474 35.2128 83.8714 36.7212C86.5334 38.2296 88.644 40.2848 90.2032 42.8869C91.7624 45.4512 92.542 48.3737 92.542 51.6545V54.6525H70.9226C69.9719 54.6525 69.0211 54.6148 68.0704 54.5394C67.1197 54.4263 66.169 54.2943 65.2183 54.1434C65.6746 56.7455 66.9296 58.9138 68.9831 60.6485C71.0747 62.3832 73.6226 63.2505 76.6269 63.2505C78.7946 63.2505 80.7721 62.798 82.5594 61.8929C84.3468 60.9502 85.8109 59.7434 86.9518 58.2727L88.8912 66.1919C87.2179 67.5118 85.3165 68.5111 83.1869 69.1899C81.0573 69.8687 78.8136 70.2081 76.4558 70.2081ZM65.0471 49.0525C67.0246 48.6754 68.9831 48.4869 70.9226 48.4869H79.5932C80.5439 48.4869 81.4566 48.5246 82.3312 48.6C83.2439 48.6754 84.1186 48.7697 84.9552 48.8828C84.3848 46.5825 83.1869 44.7158 81.3615 43.2828C79.5742 41.8121 77.4445 41.0768 74.9727 41.0768C72.5769 41.0768 70.4662 41.831 68.6409 43.3394C66.8155 44.8478 65.6176 46.7522 65.0471 49.0525Z" fill="white"/>
<path d="M117.887 69.9818C115.643 69.9818 113.552 69.5859 111.612 68.7939C109.673 67.9643 107.981 66.833 106.535 65.4V69.303H99.405V15H107.448V38.4182C108.855 37.2492 110.433 36.3441 112.183 35.703C113.97 35.0242 115.871 34.6848 117.887 34.6848C121.043 34.6848 123.915 35.4768 126.501 37.0606C129.087 38.6444 131.14 40.7751 132.661 43.4525C134.22 46.13 135 49.0902 135 52.3333C135 55.5764 134.22 58.5367 132.661 61.2141C131.14 63.8916 129.087 66.0222 126.501 67.6061C123.915 69.1899 121.043 69.9818 117.887 69.9818ZM116.917 62.8545C118.819 62.8545 120.549 62.3832 122.108 61.4404C123.705 60.4976 124.96 59.2343 125.873 57.6505C126.824 56.0667 127.299 54.2943 127.299 52.3333C127.299 50.4101 126.824 48.6566 125.873 47.0727C124.96 45.4512 123.724 44.169 122.165 43.2263C120.606 42.2835 118.857 41.8121 116.917 41.8121C115.016 41.8121 113.267 42.2835 111.669 43.2263C110.11 44.169 108.855 45.4323 107.904 47.0162C106.992 48.6 106.535 50.3724 106.535 52.3333C106.535 54.2566 106.992 56.029 107.904 57.6505C108.855 59.2343 110.11 60.4976 111.669 61.4404C113.228 62.3832 114.978 62.8545 116.917 62.8545Z" fill="white"/>
<defs>
<radialGradient id="paint0_radial_742_237" cx="0" cy="0" r="1" gradientUnits="userSpaceOnUse" gradientTransform="translate(188.145 70.5) rotate(-90) scale(21.5 45)">
<stop stop-color="white"/>
<stop offset="1" stop-color="white"/>
</radialGradient>
<radialGradient id="paint1_radial_742_237" cx="0" cy="0" r="1" gradientUnits="userSpaceOnUse" gradientTransform="translate(211.145 37) rotate(180) scale(21 22)">
<stop stop-color="white"/>
<stop offset="1" stop-color="white"/>
</radialGradient>
</defs>
</svg>
